# xmcd
#
# Track frame offsets:
#	150
#	12259
#	28004
#	48999
#	61133
#	75802
#	90579
#	107541
#	126519
#	150814
#	167618
#	180682
#	207511
#	219272
#	237936
#	249522
#	266617
#	288566
#	307046
#	328385
#
# Disc length: 4653 seconds
#
# Revision: 1
# Processed by: cddbd v1.5.2PL0 Copyright (c) Steve Scherf et al.
# Submitted via: audiograbber 1.83.01
#
DISCID=0c122b14
DTITLE=Animals and Friends Live - The best of
DYEAR=1900
DGENRE=Rock and Roll
TTITLE0=Baby let me take you home
TTITLE1=It's my life
TTITLE2=Bright lights, Big city
TTITLE3=I'm crying
TTITLE4=Bring it on home to me
TTITLE5=Don't bring me down
TTITLE6=Outcast
TTITLE7=I put a spell on you
TTITLE8=Don't let me be misunderstood
TTITLE9=Inside looking out
TTITLE10=CC rider
TTITLE11=Night time is the right time
TTITLE12=She said yeah
TTITLE13=Work song
TTITLE14=Ain't got you
TTITLE15=Hallelujah I love her so
TTITLE16=Club a go go
TTITLE17=We gotta get out of this place
TTITLE18=Boom Boom
TTITLE19=House of the rising sun
EXTD=
EXTT0=
EXTT1=
EXTT2=
EXTT3=
EXTT4=
EXTT5=
EXTT6=
EXTT7=
EXTT8=
EXTT9=
EXTT10=
EXTT11=
EXTT12=
EXTT13=
EXTT14=
EXTT15=
EXTT16=
EXTT17=
EXTT18=
EXTT19=
PLAYORDER=
